<?xml version="1.0" encoding="utf-8"?>
<!-- Generator: Adobe Illustrator 15.0.0, SVG Export Plug-In . SVG Version: 6.00 Build 0)  -->
<!DOCTYPE svg PUBLIC "-//W3C//DTD SVG 1.1//EN" "http://www.w3.org/Graphics/SVG/1.1/DTD/svg11.dtd">
<svg version="1.1" id="レイヤー_1" xmlns="http://www.w3.org/2000/svg" xmlns:xlink="http://www.w3.org/1999/xlink" x="0px"
	 y="0px" width="350px" height="87px" viewBox="0 0 350 87" enable-background="new 0 0 350 87" xml:space="preserve">
<path fill-rule="evenodd" clip-rule="evenodd" fill="#303C4F" d="M350,87h-44.75L295,66.8L284.75,87h-45V46.6L219.25,87h-45V46.6
	L153.75,87H108.8V46.6L88.25,87H43.3V46.6L22.75,87H0L43.7,0h44.35v40.4L108.65,0h45.25v40.4L174.45,0h44.95v40.4L239.95,0h44.95
	v40.4L305.45,0H350V87z M276.7,7.1h-32.2l-21.75,42.7l-11-0.1V7.1h-32.6l-37.3,73.35h7.65l22.4-44h10v44h33.05L237.3,36.7h10.5
	v43.75h16.7l12.2-23.95V7.1z M305.25,64.8V46.6L295,66.8l1.1-2H305.25z"/>
<polygon fill-rule="evenodd" clip-rule="evenodd" fill="#FFFFFF" points="276.7,7.1 276.7,56.5 264.5,80.45 247.8,80.45 247.8,36.7 
	237.3,36.7 214.95,80.45 181.9,80.45 181.9,36.45 171.9,36.45 149.5,80.45 141.85,80.45 179.15,7.1 211.75,7.1 211.75,49.7 
	222.75,49.8 244.5,7.1 "/>
</svg>
